<svg width="23" height="21" viewBox="0 0 23 21" fill="none" xmlns="http://www.w3.org/2000/svg">
<path d="M15.8666 5.47336H17.8077L14.9302 0.53656C14.6983 0.136524 14.1846 0.000148714 13.7846 0.236533C13.3846 0.468372 13.2482 0.982053 13.4846 1.38209L15.8666 5.47336Z" fill="white"/>
<path d="M9.27965 1.38202C9.51149 0.981986 9.37966 0.468305 8.97962 0.236466C8.57959 0.00462732 8.06591 0.136457 7.83407 0.536492L4.95654 5.47784H6.89762L9.27965 1.38202Z" fill="white"/>
<path d="M21.0216 6.98706H1.729C0.942572 6.98706 0.306152 7.62348 0.306152 8.40991V9.98732C0.306152 10.7738 0.942572 11.4102 1.729 11.4102H2.1745L3.54735 18.8517C3.72009 19.7291 4.52016 20.4246 5.35205 20.4246H5.89755H9.47969C9.84336 20.4246 10.3161 20.4246 10.798 20.4246H11.2344H11.6708C12.1526 20.4246 12.6254 20.4246 12.9891 20.4246H16.5712H17.1167C17.9486 20.4246 18.7487 19.7291 18.9214 18.8517L20.3034 11.4056H21.0262C21.8126 11.4056 22.449 10.7692 22.449 9.98278V8.40537C22.4445 7.62348 21.808 6.98706 21.0216 6.98706ZM8.16139 14.4241V17.6335C8.16139 18.0926 7.78863 18.4381 7.35677 18.4381C6.89764 18.4381 6.55216 18.0653 6.55216 17.6335V16.2879V13.1331C6.55216 12.6739 6.92492 12.3284 7.35677 12.3284C7.8159 12.3284 8.16139 12.7012 8.16139 13.1331V14.4241ZM10.7434 14.4241V17.6335C10.7434 18.0926 10.3707 18.4381 9.93882 18.4381C9.47969 18.4381 9.1342 18.0653 9.1342 17.6335V16.2879V13.1331C9.1342 12.6739 9.50696 12.3284 9.93882 12.3284C10.3707 12.3284 10.7434 12.7012 10.7434 13.1331V14.4241ZM13.3391 16.2879V17.6335C13.3391 18.0653 12.9936 18.4381 12.5345 18.4381C12.1026 18.4381 11.7299 18.0926 11.7299 17.6335V14.4241V13.1331C11.7299 12.7012 12.1026 12.3284 12.5345 12.3284C12.9664 12.3284 13.3391 12.6739 13.3391 13.1331V16.2879ZM15.9212 16.2879V17.6335C15.9212 18.0653 15.5757 18.4381 15.1165 18.4381C14.6847 18.4381 14.3119 18.0926 14.3119 17.6335V14.4241V13.1331C14.3119 12.7012 14.6574 12.3284 15.1165 12.3284C15.5484 12.3284 15.9212 12.6739 15.9212 13.1331V16.2879Z" fill="white"/>
</svg>
