<svg width="25" height="25" viewBox="0 0 25 25" fill="none" xmlns="http://www.w3.org/2000/svg">
<g id="Icon/Outline/plus">
<path id="Mask" fill-rule="evenodd" clip-rule="evenodd" d="M16.8505 15.7652L13.8821 12.7802L16.8671 9.81184C17.1422 9.53825 17.143 9.09423 16.8699 8.81961C16.5968 8.54499 16.1528 8.54325 15.8777 8.81683L12.8927 11.7852L9.92432 8.80017C9.65124 8.52555 9.20722 8.52381 8.9321 8.7974C8.65698 9.07098 8.65623 9.515 8.92932 9.78962L11.8977 12.7746L8.91266 15.743C8.63754 16.0166 8.6368 16.4606 8.90988 16.7352C9.18297 17.0098 9.62699 17.0116 9.90211 16.738L12.8871 13.7696L15.8555 16.7546C16.1286 17.0293 16.5726 17.031 16.8477 16.7574C17.1228 16.4838 17.1236 16.0398 16.8505 15.7652Z" fill="black"/>
<mask id="mask0_180_245" style="mask-type:alpha" maskUnits="userSpaceOnUse" x="8" y="8" width="10" height="9">
<path id="Mask_2" fill-rule="evenodd" clip-rule="evenodd" d="M16.8505 15.7652L13.8821 12.7802L16.8671 9.81184C17.1422 9.53825 17.143 9.09423 16.8699 8.81961C16.5968 8.54499 16.1528 8.54325 15.8777 8.81683L12.8927 11.7852L9.92432 8.80017C9.65124 8.52555 9.20722 8.52381 8.9321 8.7974C8.65698 9.07098 8.65623 9.515 8.92932 9.78962L11.8977 12.7746L8.91266 15.743C8.63754 16.0166 8.6368 16.4606 8.90988 16.7352C9.18297 17.0098 9.62699 17.0116 9.90211 16.738L12.8871 13.7696L15.8555 16.7546C16.1286 17.0293 16.5726 17.031 16.8477 16.7574C17.1228 16.4838 17.1236 16.0398 16.8505 15.7652Z" fill="white"/>
</mask>
<g mask="url(#mask0_180_245)">
<g id="&#240;&#159;&#142;&#168; Color">
<rect id="Base" x="12.9238" y="0.870605" width="16.8387" height="16.8387" transform="rotate(45.1603 12.9238 0.870605)" fill="#C6C6C6"/>
</g>
</g>
</g>
</svg>
